<!-- Generated by IcoMoon.io -->
<svg version="1.1" xmlns="http://www.w3.org/2000/svg" width="1024" height="1024" viewBox="0 0 1024 1024">
<g id="icomoon-ignore">
</g>
<path fill="none" stroke-linejoin="round" stroke-linecap="round" stroke-miterlimit="4" stroke-width="102.4" stroke="#000" d="M765.44 765.44c-69.605 53.464-157.538 86.256-253.061 87.905l-0.379 0.005c-298.65 0-469.35-341.35-469.35-341.35 54.85-100.843 127.308-185.284 214.060-252.071l1.85-1.369M422.4 180.89c26.642-6.508 57.228-10.241 88.686-10.241 0.322 0 0.643 0 0.965 0.001h-0.050c298.65 0 469.35 341.35 469.35 341.35-27.881 51.681-58.445 96.259-93.117 137.251l0.957-1.161M602.47 602.47c-23.394 24.774-56.464 40.195-93.136 40.195-70.692 0-128-57.308-128-128 0-36.672 15.422-69.742 40.134-93.078l0.062-0.058M42.65 42.65l938.701 938.701"></path>
</svg>
