<svg aria-hidden="true" style="position: absolute; width: 0; height: 0; overflow: hidden;" version="1.1" xmlns="http://www.w3.org/2000/svg" xmlns:xlink="http://www.w3.org/1999/xlink">
<defs>
<symbol id="icon-cross-small" viewBox="0 0 32 32">
<path stroke-linejoin="round" stroke-linecap="round" stroke-miterlimit="4" stroke-width="3.5556" d="M25.333 6.667l-18.667 18.667M6.667 6.667l18.667 18.667"></path>
</symbol>
<symbol id="icon-burger-btn" viewBox="0 0 32 32">
<path stroke-linejoin="round" stroke-linecap="round" stroke-miterlimit="4" stroke-width="3" d="M4 16h24M4 8h24M4 24h24"></path>
</symbol>
<symbol id="icon-search" viewBox="0 0 32 32">
<path stroke-linejoin="round" stroke-linecap="round" stroke-miterlimit="4" stroke-width="3.5556" d="M14.667 25.333c5.891 0 10.667-4.776 10.667-10.667s-4.776-10.667-10.667-10.667v0c-5.891 0-10.667 4.776-10.667 10.667s4.776 10.667 10.667 10.667v0M28 28l-5.799-5.799"></path>
</symbol>
<symbol id="icon-telegram" viewBox="0 0 32 32">
<path d="M22.122 10.040h0.022c0.209 0 0.403 0.065 0.562 0.177l-0.003-0.002c0.115 0.101 0.194 0.241 0.213 0.4l0 0.003v0.003c0.020 0.121 0.031 0.26 0.031 0.403 0 0.069-0.003 0.137-0.008 0.204l0.001-0.009v-0.009c-0.225 2.369-1.201 8.114-1.697 10.766-0.21 1.123-0.623 1.499-1.023 1.535-0.869 0.081-1.529-0.574-2.371-1.126-1.318-0.865-2.063-1.403-3.342-2.246-1.479-0.973-0.52-1.51 0.322-2.384 0.221-0.23 4.052-3.715 4.127-4.031 0.004-0.019 0.006-0.040 0.006-0.062 0-0.078-0.029-0.149-0.077-0.203l0 0c-0.052-0.033-0.115-0.053-0.182-0.053-0.001 0-0.002 0-0.003 0h0c-0.046 0.001-0.090 0.010-0.131 0.025l0.003-0.001 0.002-0.001q-0.198 0.045-6.316 4.174c-0.443 0.352-1.003 0.573-1.613 0.599l-0.006 0h-0.006c-0.893-0.107-1.704-0.308-2.473-0.597l0.072 0.024 0.074 0.024c-0.938-0.306-1.683-0.467-1.619-0.985q0.051-0.404 1.114-0.827 6.548-2.853 8.733-3.761c1.562-0.838 3.372-1.529 5.276-1.979l0.153-0.031 0.157-0.031zM15.93 1.025c-8.302 0.020-15.025 6.755-15.025 15.060 0 8.317 6.742 15.060 15.060 15.060s15.060-6.742 15.060-15.060c0-8.305-6.723-15.040-15.023-15.060h-0.072z"></path>
</symbol>
<symbol id="icon-instagram" viewBox="0 0 32 32">
<path d="M31.968 9.408c-0.074-1.701-0.349-2.869-0.742-3.882-0.424-1.111-1.054-2.059-1.85-2.837l-0.001-0.001c-0.78-0.792-1.724-1.419-2.778-1.827l-0.054-0.018c-1.019-0.394-2.181-0.667-3.882-0.742-1.712-0.082-2.256-0.101-6.602-0.101-4.344 0-4.888 0.019-6.595 0.094-1.699 0.074-2.869 0.349-3.88 0.742-1.112 0.424-2.060 1.054-2.839 1.85l-0.001 0.001c-0.791 0.78-1.418 1.724-1.825 2.778l-0.018 0.054c-0.395 1.019-0.669 2.181-0.744 3.882-0.082 1.712-0.101 2.256-0.101 6.602 0 4.344 0.019 4.888 0.094 6.595 0.075 1.701 0.35 2.869 0.744 3.882 0.426 1.11 1.055 2.057 1.849 2.837l0.001 0.001c0.8 0.813 1.77 1.443 2.832 1.843 1.019 0.395 2.182 0.67 3.882 0.744 1.707 0.075 2.251 0.094 6.595 0.094 4.346 0 4.89-0.019 6.595-0.094 1.701-0.074 2.869-0.349 3.882-0.742 2.157-0.85 3.833-2.526 4.664-4.628l0.019-0.055c0.394-1.019 0.669-2.182 0.744-3.882 0.075-1.707 0.093-2.251 0.093-6.595s-0.006-4.888-0.080-6.595zM29.088 22.474c-0.070 1.563-0.333 2.406-0.55 2.97-0.552 1.399-1.64 2.486-3.004 3.024l-0.036 0.012c-0.56 0.219-1.411 0.482-2.968 0.55-1.688 0.075-2.194 0.094-6.464 0.094-4.269 0-4.782-0.019-6.464-0.094-1.563-0.069-2.406-0.331-2.97-0.55-0.721-0.269-1.334-0.676-1.836-1.192l-0.001-0.001c-0.517-0.503-0.924-1.117-1.184-1.803l-0.011-0.034c-0.218-0.563-0.48-1.413-0.549-2.97-0.075-1.688-0.094-2.195-0.094-6.464 0-4.27 0.019-4.784 0.094-6.464 0.069-1.563 0.331-2.406 0.549-2.97 0.269-0.722 0.678-1.337 1.198-1.837l0.002-0.002c0.504-0.517 1.119-0.923 1.806-1.182l0.034-0.011c0.56-0.219 1.411-0.48 2.968-0.55 1.688-0.074 2.195-0.093 6.464-0.093 4.275 0 4.782 0.019 6.464 0.093 1.563 0.069 2.406 0.331 2.97 0.55 0.693 0.256 1.325 0.662 1.837 1.194 0.531 0.52 0.938 1.144 1.195 1.84 0.218 0.56 0.48 1.411 0.549 2.968 0.075 1.688 0.094 2.194 0.094 6.464 0 4.269-0.019 4.768-0.094 6.458z"></path>
<path d="M16.059 7.782c-4.539 0.002-8.218 3.682-8.219 8.221v0c0 0 0 0.001 0 0.002 0 4.541 3.681 8.222 8.222 8.222s8.222-3.681 8.222-8.222c0-4.541-3.681-8.222-8.222-8.222-0.001 0-0.001 0-0.002 0h0zM16.059 21.334c-2.945-0-5.332-2.388-5.332-5.333s2.388-5.333 5.333-5.333c0 0 0.001 0 0.001 0h-0c2.946 0 5.334 2.388 5.334 5.334s-2.388 5.334-5.334 5.334v0zM26.525 7.458c0 1.060-0.86 1.92-1.92 1.92s-1.92-0.86-1.92-1.92v0c0-1.060 0.86-1.92 1.92-1.92s1.92 0.86 1.92 1.92v0z"></path>
</symbol>
<symbol id="icon-burger-btn-white" viewBox="0 0 32 32">
<path fill="none" stroke="#fff" style="stroke: var(--color1, #fff)" stroke-linejoin="round" stroke-linecap="round" stroke-miterlimit="4" stroke-width="3" d="M4 16h24M4 8h24M4 24h24"></path>
</symbol>
<symbol id="icon-shopping-bag" viewBox="0 0 32 32">
<path stroke-linejoin="round" stroke-linecap="round" stroke-miterlimit="10" stroke-width="2" d="M29.2 18.9c-1.1-1.2-2.9-1.2-4 0l-1.7 1.7-1.7-1.7c-1.1-1.2-2.9-1.2-4 0s-1.1 3 0 4.2l1.7 1.7 4 4.2 4-4.2 1.7-1.7c1.1-1.2 1.1-3.1 0-4.2M9 13v-6c0-2.2 1.8-4 4-4v0c2.2 0 4 1.8 4 4v6"></path>
<path stroke-linejoin="round" stroke-linecap="round" stroke-miterlimit="10" stroke-width="2" d="M23 29h-20l2-20h16l2 11"></path>
</symbol>
<symbol id="icon-user" viewBox="0 0 32 32">
<path fill="currentColor"  stroke="currentColor" stroke-linejoin="round" stroke-linecap="round" stroke-miterlimit="4" stroke-width="3.5556" d="M16 20c-4.226 0-7.986 2.041-10.379 5.209-0.516 0.681-0.772 1.022-0.764 1.483 0.007 0.356 0.231 0.804 0.51 1.024 0.363 0.284 0.866 0.284 1.87 0.284h17.527c1.004 0 1.508 0 1.868-0.284 0.29-0.253 0.481-0.614 0.51-1.019l0-0.005c0.009-0.462-0.249-0.802-0.764-1.483-2.393-3.168-6.151-5.209-10.379-5.209M16 16c3.314 0 6-2.686 6-6s-2.686-6-6-6v0c-3.314 0-6 2.686-6 6s2.686 6 6 6v0"></path>
</symbol>
</defs>
</svg>
