<svg aria-hidden="true" style="position: absolute; width: 0; height: 0; overflow: hidden;" version="1.1" xmlns="http://www.w3.org/2000/svg" xmlns:xlink="http://www.w3.org/1999/xlink">
<defs>
<symbol id="icon-cross-small" viewBox="0 0 32 32">
<path stroke-linejoin="round" stroke-linecap="round" stroke-miterlimit="4" stroke-width="3.5556" d="M25.333 6.667l-18.667 18.667M6.667 6.667l18.667 18.667"></path>
</symbol>
<symbol id="icon-burger-btn" viewBox="0 0 32 32">
<path stroke-linejoin="round" stroke-linecap="round" stroke-miterlimit="4" stroke-width="3" d="M4 16h24M4 8h24M4 24h24"></path>
</symbol>
<symbol id="icon-search" viewBox="0 0 32 32">
<path stroke-linejoin="round" stroke-linecap="round" stroke-miterlimit="4" stroke-width="3.5556" d="M14.667 25.333c5.891 0 10.667-4.776 10.667-10.667s-4.776-10.667-10.667-10.667v0c-5.891 0-10.667 4.776-10.667 10.667s4.776 10.667 10.667 10.667v0M28 28l-5.799-5.799"></path>
</symbol>
<symbol id="icon-telegram" viewBox="0 0 32 32">
<path d="M22.122 10.040h0.022c0.209 0 0.403 0.065 0.562 0.177l-0.003-0.002c0.115 0.101 0.194 0.241 0.213 0.4l0 0.003v0.003c0.020 0.121 0.031 0.26 0.031 0.403 0 0.069-0.003 0.137-0.008 0.204l0.001-0.009v-0.009c-0.225 2.369-1.201 8.114-1.697 10.766-0.21 1.123-0.623 1.499-1.023 1.535-0.869 0.081-1.529-0.574-2.371-1.126-1.318-0.865-2.063-1.403-3.342-2.246-1.479-0.973-0.52-1.51 0.322-2.384 0.221-0.23 4.052-3.715 4.127-4.031 0.004-0.019 0.006-0.040 0.006-0.062 0-0.078-0.029-0.149-0.077-0.203l0 0c-0.052-0.033-0.115-0.053-0.182-0.053-0.001 0-0.002 0-0.003 0h0c-0.046 0.001-0.090 0.010-0.131 0.025l0.003-0.001 0.002-0.001q-0.198 0.045-6.316 4.174c-0.443 0.352-1.003 0.573-1.613 0.599l-0.006 0h-0.006c-0.893-0.107-1.704-0.308-2.473-0.597l0.072 0.024 0.074 0.024c-0.938-0.306-1.683-0.467-1.619-0.985q0.051-0.404 1.114-0.827 6.548-2.853 8.733-3.761c1.562-0.838 3.372-1.529 5.276-1.979l0.153-0.031 0.157-0.031zM15.93 1.025c-8.302 0.020-15.025 6.755-15.025 15.060 0 8.317 6.742 15.060 15.060 15.060s15.060-6.742 15.060-15.060c0-8.305-6.723-15.040-15.023-15.060h-0.072z"></path>
</symbol>
<symbol id="icon-telegram-svgrepo" viewBox="0 0 32 32">
<path d="M30.664 9.59c-0.856-1.956-2.077-3.697-3.63-5.176-0.090-0.086-0.212-0.138-0.346-0.138-0.143 0-0.271 0.060-0.363 0.155l-0 0c-0.086 0.090-0.138 0.212-0.138 0.346 0 0.143 0.060 0.271 0.155 0.363l0 0c3.002 2.859 4.655 6.716 4.655 10.861 0 8.27-6.728 14.998-14.998 14.998s-14.998-6.728-14.998-14.998 6.728-14.998 14.998-14.998c3.021 0 5.933 0.894 8.421 2.586 0.078 0.052 0.174 0.083 0.277 0.083 0.277 0 0.501-0.224 0.501-0.501 0-0.169-0.084-0.319-0.213-0.41l-0.002-0.001c-2.655-1.805-5.762-2.759-8.985-2.759-4.274 0-8.292 1.664-11.314 4.686s-4.686 7.040-4.686 11.314 1.664 8.292 4.686 11.314 7.040 4.686 11.314 4.686 8.292-1.664 11.314-4.686 4.686-7.040 4.686-11.314c0-2.228-0.45-4.385-1.336-6.41z"></path>
<path d="M23.271 6.785l-9.636 4.486c-0.251 0.117-0.36 0.415-0.243 0.666s0.415 0.36 0.666 0.243l5.944-2.767-9.521 7.708-3.627-1.587 5.083-2.366c0.172-0.082 0.29-0.254 0.29-0.454 0-0.077-0.017-0.149-0.048-0.215l0.001 0.003c-0.117-0.251-0.415-0.36-0.666-0.243l-5.471 2.547c-0.278 0.132-0.467 0.411-0.467 0.734 0 0.006 0 0.013 0 0.019l-0-0.001c0.008 0.322 0.202 0.596 0.479 0.72l0.005 0.002 4.050 1.772 1.186 7.117c0.073 0.44 0.669 0.565 0.913 0.192l3.365-5.136 6.363 2.97c0.51 0.238 1.116-0.126 1.149-0.685l0.896-15.241c0.001-0.014 0.001-0.029 0.001-0.043-0.010-0.355-0.391-0.589-0.712-0.441zM11.876 22.558l-0.775-4.652 7.898-6.394-6.045 6.778c-0.053 0.060-0.093 0.133-0.113 0.214l-0.001 0.003zM12.941 22.414l0.732-3.077 0.983 0.459zM15.211 18.949l-1.060-0.495 5.217-5.849-0.755 1.152zM22.102 22.166l-5.974-2.788 6.744-10.293z"></path>
</symbol>
<symbol id="icon-instagram" viewBox="0 0 32 32">
<path d="M31.968 9.408c-0.074-1.701-0.349-2.869-0.742-3.882-0.424-1.111-1.054-2.059-1.85-2.837l-0.001-0.001c-0.78-0.792-1.724-1.419-2.778-1.827l-0.054-0.018c-1.019-0.394-2.181-0.667-3.882-0.742-1.712-0.082-2.256-0.101-6.602-0.101-4.344 0-4.888 0.019-6.595 0.094-1.699 0.074-2.869 0.349-3.88 0.742-1.112 0.424-2.060 1.054-2.839 1.85l-0.001 0.001c-0.791 0.78-1.418 1.724-1.825 2.778l-0.018 0.054c-0.395 1.019-0.669 2.181-0.744 3.882-0.082 1.712-0.101 2.256-0.101 6.602 0 4.344 0.019 4.888 0.094 6.595 0.075 1.701 0.35 2.869 0.744 3.882 0.426 1.11 1.055 2.057 1.849 2.837l0.001 0.001c0.8 0.813 1.77 1.443 2.832 1.843 1.019 0.395 2.182 0.67 3.882 0.744 1.707 0.075 2.251 0.094 6.595 0.094 4.346 0 4.89-0.019 6.595-0.094 1.701-0.074 2.869-0.349 3.882-0.742 2.157-0.85 3.833-2.526 4.664-4.628l0.019-0.055c0.394-1.019 0.669-2.182 0.744-3.882 0.075-1.707 0.093-2.251 0.093-6.595s-0.006-4.888-0.080-6.595zM29.088 22.474c-0.070 1.563-0.333 2.406-0.55 2.97-0.552 1.399-1.64 2.486-3.004 3.024l-0.036 0.012c-0.56 0.219-1.411 0.482-2.968 0.55-1.688 0.075-2.194 0.094-6.464 0.094-4.269 0-4.782-0.019-6.464-0.094-1.563-0.069-2.406-0.331-2.97-0.55-0.721-0.269-1.334-0.676-1.836-1.192l-0.001-0.001c-0.517-0.503-0.924-1.117-1.184-1.803l-0.011-0.034c-0.218-0.563-0.48-1.413-0.549-2.97-0.075-1.688-0.094-2.195-0.094-6.464 0-4.27 0.019-4.784 0.094-6.464 0.069-1.563 0.331-2.406 0.549-2.97 0.269-0.722 0.678-1.337 1.198-1.837l0.002-0.002c0.504-0.517 1.119-0.923 1.806-1.182l0.034-0.011c0.56-0.219 1.411-0.48 2.968-0.55 1.688-0.074 2.195-0.093 6.464-0.093 4.275 0 4.782 0.019 6.464 0.093 1.563 0.069 2.406 0.331 2.97 0.55 0.693 0.256 1.325 0.662 1.837 1.194 0.531 0.52 0.938 1.144 1.195 1.84 0.218 0.56 0.48 1.411 0.549 2.968 0.075 1.688 0.094 2.194 0.094 6.464 0 4.269-0.019 4.768-0.094 6.458z"></path>
<path d="M16.059 7.782c-4.539 0.002-8.218 3.682-8.219 8.221v0c0 0 0 0.001 0 0.002 0 4.541 3.681 8.222 8.222 8.222s8.222-3.681 8.222-8.222c0-4.541-3.681-8.222-8.222-8.222-0.001 0-0.001 0-0.002 0h0zM16.059 21.334c-2.945-0-5.332-2.388-5.332-5.333s2.388-5.333 5.333-5.333c0 0 0.001 0 0.001 0h-0c2.946 0 5.334 2.388 5.334 5.334s-2.388 5.334-5.334 5.334v0zM26.525 7.458c0 1.060-0.86 1.92-1.92 1.92s-1.92-0.86-1.92-1.92v0c0-1.060 0.86-1.92 1.92-1.92s1.92 0.86 1.92 1.92v0z"></path>
</symbol>
<symbol id="icon-instagram-svgrepo" viewBox="0 0 32 32">
<path d="M27.314 4.686c-3.022-3.022-7.040-4.686-11.314-4.686s-8.292 1.664-11.314 4.686-4.686 7.040-4.686 11.314 1.664 8.292 4.686 11.314 7.040 4.686 11.314 4.686 8.292-1.664 11.314-4.686 4.686-7.040 4.686-11.314-1.664-8.292-4.686-11.314zM16 30.989c-8.265 0-14.989-6.724-14.989-14.989s6.724-14.989 14.989-14.989 14.989 6.724 14.989 14.989-6.724 14.989-14.989 14.989z"></path>
<path d="M21.74 6.063h-11.481c-2.314 0-4.197 1.883-4.197 4.197v11.481c0 2.314 1.883 4.196 4.197 4.196h11.481c2.314 0 4.196-1.883 4.196-4.197v-11.481c-0-2.314-1.883-4.197-4.197-4.197zM24.926 21.74c0 1.757-1.429 3.186-3.186 3.186h-11.481c-1.757 0-3.186-1.429-3.186-3.186v-11.481c0-1.757 1.429-3.186 3.186-3.186h11.481c1.757 0 3.186 1.429 3.186 3.186z"></path>
<path d="M21.213 15.701c-0.149-2.658-2.313-4.797-4.972-4.917-3.069-0.138-5.596 2.389-5.456 5.459 0.122 2.66 2.262 4.822 4.92 4.969 1.122 0.062 2.173-0.233 3.050-0.781 0.273-0.171 0.318-0.551 0.090-0.779l-0.007-0.007c-0.166-0.166-0.424-0.191-0.623-0.067-0.628 0.396-1.392 0.632-2.211 0.632-0.017 0-0.035-0-0.052-0l0.003 0c-2.341-0.025-4.23-1.99-4.164-4.33 0.066-2.355 2.076-4.233 4.479-4.082 2.070 0.13 3.756 1.781 3.926 3.848 0.069 0.842-0.112 1.638-0.476 2.322-0.104 0.196-0.072 0.436 0.085 0.593l0.008 0.008c0.236 0.236 0.635 0.18 0.792-0.113 0.436-0.814 0.664-1.756 0.608-2.755z"></path>
<path d="M22.737 9.937c0 0.744-0.603 1.347-1.347 1.347s-1.347-0.603-1.347-1.347c0-0.744 0.603-1.347 1.347-1.347s1.347 0.603 1.347 1.347z"></path>
</symbol>
<symbol id="icon-burger-btn-white" viewBox="0 0 32 32">
<path fill="none" stroke="#fff" style="stroke: var(--color1, #fff)" stroke-linejoin="round" stroke-linecap="round" stroke-miterlimit="4" stroke-width="3" d="M4 16h24M4 8h24M4 24h24"></path>
</symbol>
<symbol id="icon-shopping-bag" viewBox="0 0 32 32">
<path stroke-linejoin="round" stroke-linecap="round" stroke-miterlimit="10" stroke-width="2" d="M29.2 18.9c-1.1-1.2-2.9-1.2-4 0l-1.7 1.7-1.7-1.7c-1.1-1.2-2.9-1.2-4 0s-1.1 3 0 4.2l1.7 1.7 4 4.2 4-4.2 1.7-1.7c1.1-1.2 1.1-3.1 0-4.2M9 13v-6c0-2.2 1.8-4 4-4v0c2.2 0 4 1.8 4 4v6"></path>
<path stroke-linejoin="round" stroke-linecap="round" stroke-miterlimit="10" stroke-width="2" d="M23 29h-20l2-20h16l2 11"></path>
</symbol>
<symbol id="icon-user" viewBox="0 0 32 32">
<path fill="currentColor"  stroke="currentColor" stroke-linejoin="round" stroke-linecap="round" stroke-miterlimit="4" stroke-width="3.5556" d="M16 20c-4.226 0-7.986 2.041-10.379 5.209-0.516 0.681-0.772 1.022-0.764 1.483 0.007 0.356 0.231 0.804 0.51 1.024 0.363 0.284 0.866 0.284 1.87 0.284h17.527c1.004 0 1.508 0 1.868-0.284 0.29-0.253 0.481-0.614 0.51-1.019l0-0.005c0.009-0.462-0.249-0.802-0.764-1.483-2.393-3.168-6.151-5.209-10.379-5.209M16 16c3.314 0 6-2.686 6-6s-2.686-6-6-6v0c-3.314 0-6 2.686-6 6s2.686 6 6 6v0"></path>
</symbol>
<symbol id="icon-phone" viewBox="0 0 32 32">
<path stroke-linejoin="round" stroke-linecap="round" stroke-miterlimit="4" stroke-width="1.3333" d="M26.666 21.337v3.218c0.002 0.604-0.25 1.181-0.695 1.589s-1.042 0.61-1.643 0.556c-3.301-0.359-6.471-1.487-9.257-3.293-2.592-1.647-4.789-3.844-6.436-6.436-1.813-2.798-2.941-5.984-3.293-9.3-0.054-0.6 0.146-1.195 0.552-1.639s0.98-0.698 1.582-0.699h3.218c1.077-0.011 1.995 0.779 2.145 1.845 0.136 1.030 0.388 2.041 0.751 3.014 0.295 0.784 0.106 1.668-0.483 2.263l-1.362 1.362c1.527 2.685 3.75 4.909 6.436 6.436l1.362-1.362c0.595-0.589 1.479-0.777 2.263-0.483 0.973 0.363 1.984 0.615 3.014 0.751 1.079 0.152 1.872 1.088 1.845 2.177z"></path>
</symbol>
<symbol id="icon-mail" viewBox="0 0 32 32">
<path stroke-linejoin="round" stroke-linecap="round" stroke-miterlimit="4" stroke-width="1.3333" d="M6.4 6.667h19.2c1.32 0 2.4 1.050 2.4 2.333v14c0 1.283-1.080 2.333-2.4 2.333h-19.2c-1.32 0-2.4-1.050-2.4-2.333v-14c0-1.283 1.080-2.333 2.4-2.333z"></path>
<path stroke-linejoin="round" stroke-linecap="round" stroke-miterlimit="4" stroke-width="1.3333" d="M26.667 9.333l-10.667 8-10.667-8"></path>
</symbol>
<symbol id="icon-angle-left" viewBox="0 0 32 32">
<path d="M14.134 16.947c-0.244-0.242-0.395-0.577-0.395-0.947s0.151-0.706 0.395-0.947l0-0 6.12-6.106c0.244-0.242 0.394-0.577 0.394-0.947 0-0.737-0.597-1.334-1.334-1.334-0.367 0-0.699 0.148-0.94 0.387l-6.12 6.12c-0.723 0.724-1.17 1.723-1.17 2.827s0.447 2.103 1.17 2.827l6.12 6.12c0.241 0.239 0.573 0.387 0.94 0.387 0.737 0 1.334-0.597 1.334-1.334 0-0.37-0.151-0.705-0.394-0.947l-0-0z"></path>
</symbol>
<symbol id="icon-angle-right" viewBox="0 0 32 32">
<path d="M17.867 16.947c0.244-0.242 0.394-0.577 0.394-0.947s-0.151-0.705-0.394-0.947l-0-0-6.12-6.107c-0.243-0.242-0.394-0.577-0.394-0.947 0-0.737 0.597-1.334 1.334-1.334 0.367 0 0.699 0.148 0.94 0.388l6.12 6.12c0.723 0.724 1.17 1.723 1.17 2.827s-0.447 2.103-1.17 2.827l-6.12 6.12c-0.241 0.239-0.573 0.387-0.94 0.387-0.737 0-1.334-0.597-1.334-1.334 0-0.37 0.151-0.705 0.394-0.947l0-0z"></path>
</symbol>
<symbol id="icon-facebook" viewBox="0 0 32 32">
<path d="M21.33 5.312h2.922v-5.088c-1.232-0.143-2.66-0.224-4.107-0.224-0.052 0-0.104 0-0.157 0l0.008-0c-4.211 0-7.098 2.65-7.098 7.52v4.48h-4.648v5.688h4.648v14.312h5.699v-14.31h4.459l0.709-5.688h-5.168v-3.922c0-1.643 0.443-2.768 2.733-2.768z"></path>
</symbol>
<symbol id="icon-eye-open" viewBox="0 0 32 32">
<path stroke-linejoin="round" stroke-linecap="round" stroke-miterlimit="4" stroke-width="3.2" d="M1.333 16s5.334-10.667 14.667-10.667 14.667 10.667 14.667 10.667-5.334 10.667-14.667 10.667-14.667-10.667-14.667-10.667"></path>
<path stroke-linejoin="round" stroke-linecap="round" stroke-miterlimit="4" stroke-width="3.2" d="M16 20c2.209 0 4-1.791 4-4s-1.791-4-4-4v0c-2.209 0-4 1.791-4 4s1.791 4 4 4v0"></path>
</symbol>
<symbol id="icon-eye-off" viewBox="0 0 32 32">
<path stroke-linejoin="round" stroke-linecap="round" stroke-miterlimit="4" stroke-width="3.2" d="M23.92 23.92c-2.175 1.671-4.923 2.695-7.908 2.747l-0.012 0c-9.333 0-14.667-10.667-14.667-10.667 1.714-3.151 3.978-5.79 6.689-7.877l0.058-0.043M13.2 5.653c0.833-0.203 1.788-0.32 2.771-0.32 0.010 0 0.020 0 0.030 0h-0.002c9.333 0 14.667 10.667 14.667 10.667-0.871 1.615-1.826 3.008-2.91 4.289l0.030-0.036M18.827 18.827c-0.731 0.774-1.764 1.256-2.91 1.256-2.209 0-4-1.791-4-4 0-1.146 0.482-2.179 1.254-2.909l0.002-0.002M1.333 1.333l29.334 29.334"></path>
</symbol>
</defs>
</svg>
